<svg
  version="1.1"
  xmlns="http://www.w3.org/2000/svg"
  xmlns:xlink="http://www.w3.org/1999/xlink"
	width="173px" height="21px"
	viewBox="0 0 1409 178"
  style="cursor: pointer;">
  <defs><polygon id="path-1" points="0 0.04 1408.98 0.04 1408.98 178 0 178"></polygon></defs>
  <g id="Disclaimer" stroke="none" stroke-width="1" fill="none" fill-rule="evenodd">
    <g id="SexyHot_horizontal_FundoEscuro" transform="translate(0.000000, -1.000000)">
      <polygon id="Fill-1" fill="#000105" points="4.222 174.481 813.222 174.481 813.222 12.879 4.222 12.879"></polygon>
      <path d="M62.756,109.885 C63.44,125.17 65.61,138.52 110.339,138.52 C147.874,138.52 162.252,128.029 162.252,111.707 C162.252,103.724 158.94,99.271 155.755,96.419 C144.801,86.609 106.688,82.964 101.324,77.824 C100.299,76.911 99.842,75.311 99.842,74.056 C99.842,69.831 103.717,67.101 111.02,67.101 C115.357,67.101 118.778,67.667 121.177,69.382 C123.688,71.092 125.172,73.944 125.4,78.508 L159.399,78.508 C158.94,61.508 148.334,51.808 113.302,51.808 C80.328,51.808 63.788,59.909 63.788,77.935 C63.788,82.616 65.155,88.436 69.605,92.311 C80.674,102.015 120.036,105.89 124.715,111.141 C125.626,112.164 126.198,113.419 126.198,114.904 C126.198,121.52 118.441,123.234 111.249,123.234 C106.688,123.234 103.605,122.093 101.324,119.928 C99.153,117.754 98.24,114.45 98.129,109.885 L62.756,109.885" id="Fill-2" fill="#FFFFFE"></path>
      <polyline id="Fill-3" fill="#FFFFFE" points="251.814 138.173 334.82 138.173 334.82 120.046 286.874 120.046 286.874 104.185 331.361 104.185 331.361 86.059 286.874 86.059 286.874 70.2 334.341 70.2 334.341 52.065 251.814 52.065 251.814 138.173"></polyline>
      <polyline id="Fill-4" fill="#FFFFFE" points="431.743 138.311 475.469 138.311 497.445 109.164 518.588 138.311 565.891 138.311 526.352 94.112 564.696 52.067 520.141 52.067 499.836 78.827 480.238 52.067 432.941 52.067 470.689 94.112 431.743 138.311"></polyline>
      <polyline id="Fill-5" fill="#FFFFFE" points="683.268 139.846 720.226 139.846 720.226 113.593 763.272 52.065 723.877 52.065 704.549 88.299 686.308 52.065 640.234 52.065 683.268 113.593 683.268 139.846"></polyline>
      <g id="Group-9" transform="translate(0.000000, 1.000000)">
        <mask id="mask-2" fill="white">
          <polygon id="path-1" points="0 0.04 1408.98 0.04 1408.98 178 0 178"></polygon>
        </mask>
        <g id="Clip-7"></g>
        <polyline id="Fill-6" fill="#FFFFFE" mask="url(#mask-2)" points="813.088 167.222 813.091 177.944 0 177.944 0 7.588 813.091 7.588 813.091 18.513 10.594 18.513 10.594 167.222 813.088 167.222"></polyline>
        <path d="M813,177.988 L884.755,177.988 L884.755,112.137 L955.794,112.137 L955.794,177.988 L1027.546,177.988 L1027.546,131.634 C1041.986,159.653 1074.176,177.988 1131.306,177.988 C1174.866,177.988 1204.146,166.277 1222.406,148.717 C1236.466,135.365 1244.426,114.993 1244.426,88.995 C1244.426,74.006 1241.746,60.092 1235.826,47.929 L1280.016,47.929 L1280.016,177.988 L1352.436,177.988 L1352.436,47.929 L1408.886,47.929 L1408.886,6.002 L1223.556,6.002 L1223.556,30.105 C1206.016,11.463 1176.456,-8.52651283e-14 1131.306,-8.52651283e-14 C1087.746,-8.52651283e-14 1066.896,7.26 1050.746,18.739 C1041.236,25.495 1033.236,34.604 1027.546,45.988 L1027.546,7.576 L955.794,7.576 L955.794,70.598 L884.755,70.598 L884.755,7.576 L813,7.576 L813,177.988 Z M1171.826,88.995 C1171.826,123.657 1154.726,139.582 1131.306,139.582 C1107.886,139.582 1090.786,123.657 1090.786,88.995 C1090.786,54.335 1107.886,38.404 1131.306,38.404 C1154.726,38.404 1171.826,54.335 1171.826,88.995 L1171.826,88.995 Z" id="Fill-8" fill="#DE4841" mask="url(#mask-2)"></path>
      </g>
    </g>
  </g>
</svg>
